<svg width="92" height="55" viewBox="0 0 92 55" fill="none" xmlns="http://www.w3.org/2000/svg">
<path d="M1 30.0926L1.88235 30.7216C2.76471 31.3505 4.52941 32.6084 6.29412 35.0102C8.05882 37.4119 9.82353 40.9576 11.5882 43.8529C13.3529 46.7483 15.1176 48.9935 16.8824 45.3099C18.6471 41.6263 20.4118 32.014 22.1765 32.9575C23.9412 33.901 25.7059 45.4003 27.4706 50.4584C29.2353 55.5166 31 54.1335 32.7647 52.536C34.5294 50.9386 36.2941 49.1267 38.0588 44.1636C39.8235 39.2005 41.5882 31.0862 43.3529 27.8333C45.1177 24.5803 46.8824 26.1886 48.6471 23.3354C50.4118 20.4822 52.1765 13.1674 53.9412 10.3458C55.7059 7.52431 57.4706 9.19601 59.2353 13.3006C61 17.4052 62.7647 23.9426 64.5294 23.7218C66.2941 23.501 68.0588 16.522 69.8235 15.9838C71.5882 15.4457 73.353 21.3486 75.1177 26.9933C76.8824 32.6381 78.6471 38.0247 80.4118 34.0473C82.1765 30.0698 83.9412 16.7282 85.7059 9.65966C87.4706 2.59109 89.2353 1.79555 90.1177 1.39777L91 1" stroke="#9181DB" stroke-width="2" stroke-linecap="round"/>
</svg>
