<svg width="94" height="54" viewBox="0 0 94 54" fill="none" xmlns="http://www.w3.org/2000/svg">
<path d="M1 29.5437L1.90196 30.1608C2.80392 30.7779 4.60784 32.012 6.41177 34.3685C8.21569 36.7249 10.0196 40.2036 11.8235 43.0444C13.6275 45.8852 15.4314 48.0879 17.2353 44.4738C19.0392 40.8598 20.8431 31.4288 22.6471 32.3545C24.451 33.2802 26.2549 44.5625 28.0588 49.5252C29.8627 54.4879 31.6667 53.131 33.4706 51.5637C35.2745 49.9963 37.0784 48.2186 38.8824 43.3492C40.6863 38.4797 42.4902 30.5186 44.2941 27.327C46.098 24.1354 47.902 25.7134 49.7059 22.914C51.5098 20.1146 53.3137 12.9378 55.1177 10.1695C56.9216 7.40121 58.7255 9.04137 60.5294 13.0685C62.3333 17.0956 64.1373 23.5097 65.9412 23.2931C67.7451 23.0765 69.549 16.2291 71.3529 15.7011C73.1569 15.1732 74.9608 20.9646 76.7647 26.5029C78.5686 32.0411 80.3726 37.3262 82.1765 33.4237C83.9804 29.5213 85.7843 16.4315 87.5882 9.49627C89.3922 2.56107 91.1961 1.78053 92.098 1.39027L93 1" stroke="#3380FF" stroke-width="2" stroke-linecap="round"/>
</svg>
