<svg width="122" height="44" viewBox="0 0 122 44" fill="none" xmlns="http://www.w3.org/2000/svg">
<path d="M1 23.1031L1.93137 22.5216C2.86275 21.9401 4.72549 20.7772 6.58824 18.5567C8.45098 16.3362 10.3137 13.0581 12.1765 10.3813C14.0392 7.7044 15.902 5.6287 17.7647 9.03428C19.6275 12.4399 21.4902 21.3267 23.3529 20.4545C25.2157 19.5822 27.0784 8.95071 28.9412 4.27432C30.8039 -0.402077 32.6667 0.876581 34.5294 2.35349C36.3922 3.8304 38.2549 5.50557 40.1177 10.0941C41.9804 14.6826 43.8431 22.1844 45.7059 25.1919C47.5686 28.1994 49.4314 26.7124 51.2941 29.3503C53.1569 31.9882 55.0196 38.7509 56.8824 41.3595C58.7451 43.9681 60.6078 42.4226 62.4706 38.6278C64.3333 34.833 66.1961 28.7889 68.0588 28.9931C69.9216 29.1972 71.7843 35.6495 73.6471 36.147C75.5098 36.6445 77.3726 31.1872 79.2353 25.9685C83 24 80.5 13 84 15.5C91.5 15.5 101.5 -2.81183 102.5 10.0941C103.5 23 107.569 22.6322 108.5 23L121 23" stroke="#FFB849" stroke-width="2" stroke-linecap="round"/>
</svg>
