<svg width="97" height="50" viewBox="0 0 97 50" fill="none" xmlns="http://www.w3.org/2000/svg">
<path d="M1 27.348L1.93137 27.9177C2.86275 28.4873 4.72549 29.6265 6.58824 31.8017C8.45098 33.9768 10.3137 37.188 12.1765 39.8102C14.0392 42.4325 15.902 44.4658 17.7647 41.1297C19.6275 37.7936 21.4902 29.0881 23.3529 29.9426C25.2157 30.7971 27.0784 41.2116 28.9412 45.7925C30.8039 50.3735 32.6667 49.1209 34.5294 47.6742C36.3922 46.2274 38.2549 44.5864 40.1177 40.0915C41.9804 35.5967 43.8431 28.2479 45.7059 25.3018C47.5686 22.3558 49.4314 23.8123 51.2941 21.2283C53.1569 18.6442 55.0196 12.0195 56.8824 9.46416C58.7451 6.90881 60.6078 8.4228 62.4706 12.1402C64.3333 15.8575 66.1961 21.7782 68.0588 21.5783C69.9216 21.3783 71.7843 15.0576 73.6471 14.5703C75.5098 14.0829 77.3726 19.4289 79.2353 24.5411C81.0981 29.6533 82.9608 34.5318 84.8235 30.9296C86.6863 27.3274 88.549 15.2444 90.4118 8.84271C92.2745 2.44099 94.1373 1.72049 95.0686 1.36025L96 1" stroke="#F0A0A0" stroke-width="2" stroke-linecap="round"/>
</svg>
