<svg width="92" height="51" viewBox="0 0 92 51" fill="none" xmlns="http://www.w3.org/2000/svg">
<path d="M1 27.897L1.88235 28.4784C2.76471 29.0599 4.52941 30.2229 6.29412 32.4434C8.05882 34.6639 9.82353 37.9419 11.5882 40.6188C13.3529 43.2956 15.1176 45.3713 16.8824 41.9657C18.6471 38.5602 20.4118 29.6733 22.1765 30.5456C23.9412 31.4179 25.7059 42.0493 27.4706 46.7257C29.2353 51.4021 31 50.1234 32.7647 48.6465C34.5294 47.1696 36.2941 45.4945 38.0588 40.9059C39.8235 36.3174 41.5882 28.8156 43.3529 25.8081C45.1177 22.8007 46.8824 24.2876 48.6471 21.6497C50.4118 19.0118 52.1765 12.2491 53.9412 9.6405C55.7059 7.03191 57.4706 8.57744 59.2353 12.3722C61 16.167 62.7647 22.2111 64.5294 22.007C66.2941 21.8028 68.0588 15.3505 69.8235 14.853C71.5882 14.3555 73.353 19.8128 75.1177 25.0316C76.8824 30.2503 78.6471 35.2304 80.4118 31.5531C82.1765 27.8759 83.9412 15.5412 85.7059 9.0061C87.4706 2.47101 89.2353 1.7355 90.1177 1.36775L91 1" stroke="#F0A0A0" stroke-width="2" stroke-linecap="round"/>
</svg>
