<svg width="16" height="16" viewBox="0 0 16 16" fill="none" xmlns="http://www.w3.org/2000/svg">
<path d="M6.31177 8.35H1.0353C0.88299 8.35 0.755884 8.2229 0.755884 8.07059V1.0353C0.755884 0.88299 0.88299 0.755884 1.0353 0.755884H6.31177C6.46407 0.755884 6.59118 0.88299 6.59118 1.0353V8.07059C6.59118 8.2229 6.46407 8.35 6.31177 8.35ZM6.31177 15.3853H1.0353C0.88299 15.3853 0.755884 15.2582 0.755884 15.1059V11.5882C0.755884 11.4359 0.88299 11.3088 1.0353 11.3088H6.31177C6.46407 11.3088 6.59118 11.4359 6.59118 11.5882V15.1059C6.59118 15.2582 6.46407 15.3853 6.31177 15.3853ZM15.1059 15.3853H9.82941C9.67711 15.3853 9.55 15.2582 9.55 15.1059V8.07059C9.55 7.91828 9.67711 7.79118 9.82941 7.79118H15.1059C15.2582 7.79118 15.3853 7.91828 15.3853 8.07059V15.1059C15.3853 15.2582 15.2582 15.3853 15.1059 15.3853ZM9.55 4.55294V1.0353C9.55 0.88299 9.67711 0.755884 9.82941 0.755884H15.1059C15.2582 0.755884 15.3853 0.88299 15.3853 1.0353V4.55294C15.3853 4.70525 15.2582 4.83235 15.1059 4.83235H9.82941C9.67711 4.83235 9.55 4.70525 9.55 4.55294Z" stroke="#0060FF" stroke-width="1.2"/>
</svg>
