<svg width="22" height="22" viewBox="0 0 22 22" fill="none" xmlns="http://www.w3.org/2000/svg">
<path d="M15.3437 -0.026001L14.7936 0.576908C13.5618 1.93282 12.5463 2.53909 11.7011 2.93572C10.8558 3.33151 10.1456 3.44974 9.44792 3.98389C8.70414 4.55409 7.62327 5.64755 7.16794 7.59966C6.19188 7.81265 5.47745 8.18664 4.91395 8.67383C4.35716 9.15515 3.93789 9.70272 3.42135 10.2989C3.41716 10.3056 3.42387 10.3182 3.42135 10.3249C2.68008 11.1769 2.03189 12.0942 0.774086 12.5789L0.25 12.7885V21.75H16.2351C17.1516 21.7005 17.7872 21.0657 18.1737 20.4394C18.5595 19.8138 18.7733 19.1363 18.8815 18.5795C19.1599 17.1607 19.6672 13.0762 19.6672 13.0762L19.694 12.9982V12.9193C19.6672 12.3525 19.4341 11.8712 19.1431 11.4251L20.0865 8.62184L21.5807 6.36785L22 5.76494L21.4491 5.26769L15.9466 0.498085L15.3437 -0.026001ZM15.3965 2.27998L19.772 6.08023L18.619 7.78247L18.541 7.86213L18.5142 7.99294L17.7545 10.2461C17.3579 10.0826 16.9495 9.9677 16.4967 9.98447H16.4438L11.151 10.0105H10.3125V13.2598C10.1951 14.1738 9.68691 14.5277 9.05465 14.7801C8.84501 14.8648 8.81902 14.8186 8.63538 14.858V9.9853C8.49786 6.87684 9.60473 5.98212 10.4701 5.32052C10.7091 5.13688 11.4093 4.92473 12.4088 4.45599C13.244 4.06271 14.2821 3.35834 15.3965 2.28082V2.27998ZM7.01113 9.48637C7.00778 9.67672 6.94824 9.81089 6.9583 10.0105V16.7188H7.79684C7.79684 16.7188 8.69408 16.7087 9.65756 16.3255C10.6202 15.9423 11.7833 15.045 11.9895 13.4694V11.6875L16.4967 11.6615H16.5227C16.8908 11.6414 17.2519 11.7679 17.5269 12.0134C17.8019 12.2589 17.9685 12.6033 17.9901 12.9713C17.9868 12.9848 17.9482 13.2959 17.9381 13.3646H14.5051V15.0417H17.7285C17.6396 15.6899 17.5583 16.0966 17.466 16.7188H14.5051V18.3958H17.2044C17.1053 18.8015 16.9462 19.1901 16.7323 19.5488C16.5034 19.922 16.3063 20.0629 16.1302 20.0729H1.92708V13.8099C3.28635 13.0887 4.13159 12.0515 4.67832 11.4259C5.24517 10.7769 5.63425 10.2855 6.01495 9.95847C6.26399 9.74548 6.65391 9.62389 7.01113 9.48637Z" fill="black"/>
</svg>
