<svg width="20" height="20" viewBox="0 0 20 20" fill="none" xmlns="http://www.w3.org/2000/svg">
<path d="M0.200012 3.7C0.200012 2.77174 0.568761 1.8815 1.22514 1.22512C1.88152 0.568746 2.77175 0.199997 3.70001 0.199997H16.3C17.2283 0.199997 18.1185 0.568746 18.7749 1.22512C19.4313 1.8815 19.8 2.77174 19.8 3.7V16.3C19.8 17.2283 19.4313 18.1185 18.7749 18.7749C18.1185 19.4313 17.2283 19.8 16.3 19.8H3.70001C2.77175 19.8 1.88152 19.4313 1.22514 18.7749C0.568761 18.1185 0.200012 17.2283 0.200012 16.3V3.7ZM1.60001 10.7V16.3C1.60001 16.857 1.82126 17.3911 2.21509 17.7849C2.60891 18.1788 3.14306 18.4 3.70001 18.4H9.30001V10.7H1.60001ZM9.30001 9.3V1.6H3.70001C3.14306 1.6 2.60891 1.82125 2.21509 2.21507C1.82126 2.6089 1.60001 3.14304 1.60001 3.7V9.3H9.30001ZM10.7 10.7V18.4H16.3C16.857 18.4 17.3911 18.1788 17.7849 17.7849C18.1788 17.3911 18.4 16.857 18.4 16.3V10.7H10.7ZM18.4 9.3V3.7C18.4 3.14304 18.1788 2.6089 17.7849 2.21507C17.3911 1.82125 16.857 1.6 16.3 1.6H10.7V9.3H18.4Z" fill="black"/>
</svg>
